<?xml version="1.0" encoding="UTF-8"?>
<svg id="a" data-name="Layer 2" xmlns="http://www.w3.org/2000/svg" viewBox="0 0 45.6 36.7">
  <line y1="1.5" x2="10.8" y2="1.5" fill="none" stroke="#fff" stroke-width="3"/>
  <line y1="7.2" x2="10.8" y2="7.2" fill="none" stroke="#fff" stroke-width="3"/>
  <path d="m21.7,14.3H0v-3h21.6c3.3,0,5.1,2,5.2,5-1.1-1.4-3.1-1.8-5.1-2Z" fill="#fff"/>
  <path d="m21.7,28.2H0v3h21.6c3.3,0,5.1-2,5.2-5-1.1,1.4-3.1,1.8-5.1,2Z" fill="#fff"/>
  <path d="m21.7,20.2H0v-3h21.6c3.1,0,4.3,1.1,5.1,3h-5Z" fill="#fff"/>
  <path d="m21.7,22.4H0v3h21.6c3.1,0,4.3-1.1,5.1-3h-5Z" fill="#fff"/>
  <path d="m28.9,31.6h16.7v1.5h-16.7c-.8,0-1.3-.6-1.6-1.5h1.6Z" fill="#fff"/>
  <path d="m28.9,35.3h16.7v1.4h-16.7c-1.5,0-1.8-1.5-1.8-2.4,0-.1.5,1,1.8,1Z" fill="#fff"/>
</svg>