<?xml version="1.0" encoding="UTF-8"?>
<svg id="a" data-name="Layer 1" xmlns="http://www.w3.org/2000/svg" viewBox="0 0 24 24">
  <path d="m21,0H3C1.3,0,0,1.3,0,3v15c0,1.7,1.3,3,3,3s1-.4,1-1-.4-1-1-1-1-.4-1-1V7.5c0-.3.2-.5.5-.5h19c.3,0,.5.2.5.5v10.5c0,.6-.4,1-1,1s-1,.4-1,1,.4,1,1,1c1.7,0,3-1.3,3-3V3c0-1.7-1.3-3-3-3ZM3,3.5c0-.6.4-1,1-1s1,.4,1,1-.4,1-1,1-1-.4-1-1Zm3,0c0-.6.4-1,1-1s1,.4,1,1-.4,1-1,1-1-.4-1-1Zm3,0c0-.6.4-1,1-1s1,.4,1,1-.4,1-1,1-1-.4-1-1Z" fill="#fff"/>
  <path d="m17.5,12.5c.3-.3.3-.8,0-1.1-.3-.3-.8-.3-1,0l-.7.7c-.9-.6-1.9-1-3-1.1v-.8h.8c.4,0,.8-.3.8-.8s-.3-.8-.8-.8h-3c-.4,0-.8.3-.8.8s.3.8.8.8h.8v.8c-1.1.1-2.1.5-3,1.2l-.7-.7c-.3-.3-.8-.3-1.1,0s-.3.8,0,1.1c0,0,0,0,0,0l.7.7c-2.4,2.7-2.1,6.8.5,9.2,2.7,2.4,6.8,2.1,9.2-.5,2.2-2.5,2.2-6.2,0-8.6l.7-.7Zm-5.5,9.5c-2.5,0-4.5-2-4.5-4.5s2-4.5,4.5-4.5,4.5,2,4.5,4.5-2,4.5-4.5,4.5Z" fill="#fff"/>
  <path d="m13,15.5l-1.5,1.5c-.3.3-.3.8,0,1.1.3.3.8.3,1,0l1.5-1.5c.3-.3.3-.8,0-1.1-.3-.3-.8-.3-1.1,0,0,0,0,0,0,0Z" fill="#fff"/>
</svg>