<?xml version="1.0" encoding="UTF-8"?>
<svg id="a" data-name="Layer 2" xmlns="http://www.w3.org/2000/svg" viewBox="0 0 50 50">
  <rect width="50" height="50" rx="12.5" ry="12.5" fill="#001e36"/>
  <path d="m11.3,24.1c0-3.5,0-7,0-10.5,0-.4,0-.4.4-.4,1.5,0,3,0,4.6-.1.8,0,1.6,0,2.5,0,.6,0,1.3,0,1.9.2.5.1,1,.2,1.5.4.9.3,1.6.7,2.3,1.3,1,.8,1.7,1.9,2.1,3.2.5,1.7.5,3.4,0,5.1-.2.6-.4,1.2-.8,1.7-.2.3-.4.5-.6.7-.2.2-.3.4-.5.5-.8.7-1.6,1.2-2.6,1.5-1.2.4-2.4.6-3.7.6-.8,0-1.5,0-2.3,0,0,0,0,0-.1,0-.2,0-.2,0-.2.2,0,1.4,0,2.8,0,4.2,0,.7,0,1.5,0,2.2,0,.3,0,.4-.4.4-1.2,0-2.5,0-3.7,0-.4,0-.4,0-.4-.4,0-3.5,0-7.1,0-10.6Zm6.2-7s0,0,0,0c-.4,0-.9,0-1.3,0-.3,0-.3,0-.3.3,0,2.2,0,4.3,0,6.5s0,0,0,0q0,.2.2.2c.7,0,1.3,0,2,0,.8,0,1.5-.2,2.3-.4.3-.1.6-.3.9-.5.6-.4,1.1-1,1.2-1.8,0-.4.1-.8,0-1.1,0-.9-.4-1.7-1.1-2.4-.4-.3-.8-.5-1.3-.6-.5-.2-1.1-.3-1.6-.3-.4,0-.7,0-1.1,0Z" fill="#31a8ff"/>
  <path d="m29.3,32.4c0-.6,0-1.1,0-1.7,0,0,0-.1,0-.2,0-.2.1-.3.3-.2.4.2.7.4,1.1.5.2.1.5.2.7.3.4.1.8.2,1.2.3.9.2,1.8.2,2.6.2.4,0,.8,0,1.1-.3.2-.1.4-.3.5-.5.1-.3.1-.6,0-.8-.1-.2-.3-.4-.5-.5-.4-.2-.8-.4-1.2-.6-.4-.2-.8-.3-1.1-.5-.9-.3-1.7-.8-2.4-1.3-.8-.5-1.4-1.2-1.8-2.1-.2-.4-.3-.8-.3-1.3,0-.8,0-1.6.3-2.4.4-1,1.2-1.8,2.1-2.4.9-.5,2-.8,3-.9,1.2-.1,2.5,0,3.7.2.4,0,.9.1,1.3.3.1,0,.3,0,.4.1.2,0,.3.2.3.4,0,0,0,.1,0,.2,0,1,0,2.1,0,3.1,0,0,0,0,0,0,0,.3-.2.5-.5.3-.2-.1-.5-.2-.7-.3-.4-.2-.8-.3-1.3-.4-.5,0-.9-.2-1.4-.2-.7,0-1.4-.1-2.1,0-.1,0-.3,0-.4.1-.5.2-.8.9-.3,1.5.2.2.4.4.7.5.6.3,1.2.6,1.9.8,1,.4,1.9.8,2.8,1.4.6.4,1.1.9,1.5,1.5.4.6.6,1.2.6,1.8,0,.7,0,1.4-.2,2-.2.6-.4,1.1-.8,1.6-.1.1-.2.2-.3.4-.9,1-2.1,1.4-3.3,1.7-1.5.3-3,.3-4.6,0-.6,0-1.2-.2-1.7-.4-.3,0-.6-.2-.8-.3-.2,0-.3-.2-.3-.4,0-.6,0-1.2,0-1.8Z" fill="#31a8ff"/>
  <path d="m17.4,17.1c.4,0,.7,0,1.1,0,.6,0,1.1.1,1.6.3.5.1.9.3,1.3.6.7.6,1,1.4,1.1,2.4,0,.4,0,.8,0,1.1-.2.8-.6,1.3-1.2,1.8-.3.2-.6.3-.9.5-.7.2-1.5.4-2.3.4-.7,0-1.3,0-2,0q-.2,0-.2-.2s0,0,0,0c0-2.2,0-4.3,0-6.5,0-.3,0-.3.3-.3.4,0,.9,0,1.3,0,0,0,0,0,0,0Z" fill="#001e36"/>
</svg>