<?xml version="1.0" encoding="UTF-8"?>
<svg id="a" data-name="Layer 1" xmlns="http://www.w3.org/2000/svg" viewBox="0 0 49.2 46.1">
  <g>
    <path d="m15.8,34.5c-6.7-10.3-7.6-20.9-2.4-28.3C16.8,1.4,22.2-.9,27.1.3c5.4,1.4,9.4,7.2,10.1,15.1l-3.1-.9c-.5-5.1-3.6-10.2-7.7-11.2-3.7-.9-7.9.9-10.6,4.7-4.5,6.3-3.6,15.7,2.4,24.9l-2.5,1.6Z" fill="#764abc"/>
    <circle cx="16.9" cy="33.5" r="3.6" fill="#764abc"/>
  </g>
  <g>
    <path d="m35.6,29.4c-5.4,11.1-14,17.3-23,16.6-5.9-.5-10.6-3.9-12.1-8.7-1.6-5.3,1.3-11.8,7.7-16.4l.8,3.1c-4.1,3.1-6.9,8.3-5.7,12.4,1.1,3.7,4.8,6.3,9.5,6.6,7.8.6,15.3-5,20.1-15l2.7,1.3Z" fill="#764abc"/>
    <circle cx="34.1" cy="28.9" r="3.6" fill="#764abc"/>
  </g>
  <g>
    <path d="m21,16.7c12.3-1.4,22.1,2.6,26.4,10.6,2.7,5.2,2.4,11-.9,14.9-3.6,4.2-10.6,5.2-18,2.2l2.2-2.4c4.8,1.8,10.7,1.4,13.5-1.8,2.5-2.9,2.7-7.4.6-11.5-3.6-6.9-12.4-10.3-23.4-9l-.3-3Z" fill="#764abc"/>
    <circle cx="21.4" cy="18.1" r="3.6" fill="#764abc"/>
  </g>
</svg>