<?xml version="1.0" encoding="UTF-8"?>
<svg id="a" data-name="Layer 2" xmlns="http://www.w3.org/2000/svg" viewBox="0 0 49.9 49.9">
  <rect width="49.9" height="49.9" fill="#007acc"/>
  <polygon points="11 23.2 28.5 23.2 28.5 27.2 22.1 27.2 22.1 45.8 17.5 45.8 17.5 27.2 11 27.2 11 23.2" fill="#fff"/>
  <path d="m44.7,26.5c-6.1-8.8-19.2.2-11.1,7.2s10.3,3.3,7.3,7.2-6.7-.1-7.1-1.8l-3.9,2.1c2.3,4.1,8.5,6.7,13.9,3.2s3.3-6.7.7-9.3-5.3-2.7-6.9-3.5-2.3-3-1.1-4c2.6-2.2,4.6,1.2,4.6,1.2l3.6-2.3Z" fill="#fff"/>
</svg>