<?xml version="1.0" encoding="UTF-8"?>
<svg id="a" data-name="Layer 1" xmlns="http://www.w3.org/2000/svg" viewBox="0 0 84.8 96">
  <polygon points="40.7 49 40.7 75.3 17.9 62.1 17.9 35.8 40.7 49" fill="#1c78c0"/>
  <polygon points="44.1 49 66.9 35.8 66.9 62.1 44.1 75.3 44.1 49" fill="#1c78c0"/>
  <polygon points="42.4 46.1 19.6 32.9 42.4 19.7 65.2 32.9 42.4 46.1" fill="#1c78c0"/>
  <polygon points="40.7 0 40.7 17 16.4 31.1 1.7 22.6 40.7 0" fill="#8ed5fa"/>
  <polygon points="0 25.4 14.8 34 14.7 62 0 70.6 0 25.4" fill="#8ed5fa"/>
  <polygon points="1.7 73.4 16.4 64.9 40.7 79 40.7 96 1.7 73.4" fill="#8ed5fa"/>
  <polygon points="44.1 96 44.1 79 68.4 64.9 83.1 73.4 44.1 96" fill="#8ed5fa"/>
  <polygon points="84.8 70.6 70 62 70.1 34 84.8 25.4 84.8 70.6" fill="#8ed5fa"/>
  <polygon points="83.1 22.6 68.4 31.1 44.1 17 44.1 0 83.1 22.6" fill="#8ed5fa"/>
</svg>